<?xml version="1.0" encoding="utf-8"?>
<!-- Generator: Adobe Illustrator 27.2.0, SVG Export Plug-In . SVG Version: 6.00 Build 0)  -->
<svg version="1.1" id="Layer_1" xmlns="http://www.w3.org/2000/svg" xmlns:xlink="http://www.w3.org/1999/xlink" x="0px" y="0px"
	 viewBox="0 0 64 64" style="enable-background:new 0 0 64 64;" xml:space="preserve">
<style type="text/css">
	.st0{fill:#F9E0B4;}
	.st1{fill:#FFA42C;}
	.st2{opacity:0.6;}
	.st3{fill:#FFFFFF;}
	.st4{opacity:0.3;}
	.st5{fill:#9E502E;}
	.st6{fill:#F9E2C7;}
</style>
<g>
	<g>
		<circle class="st0" cx="32" cy="32.3" r="25.6"/>
		<g>
			<path class="st1" d="M46.6,27.7c-2.8-0.2-5.4-0.2-8.2,0c-7.2,0.6-14.2,2.8-19.3,6.6l0,0c-0.4,0.2-0.8,0.6-1.2,1
				c-1.6,0.6-3.2-1.4-1.2-3.2c0.2-0.2,0.4-0.4,0.4-0.4c5-4.6,13-7.8,21.5-8.2c2.8-0.2,5.6,0,8.4,0.6C48.8,24.5,49.4,27.5,46.6,27.7
				L46.6,27.7z"/>
			<path class="st1" d="M46.6,27.7L40,60.8c-0.6,3-4.4,3.8-6.2,1.4c0-0.2-0.2-0.2-0.2-0.4L18,35.1c5.2-4.2,12.8-6.8,20.5-7.6
				C41.2,27.3,44,27.5,46.6,27.7z"/>
			<g class="st2">
				<path class="st3" d="M39.4,62c-1.2,1.8-4.2,2-5.6,0.2c0-0.2-0.2-0.2-0.2-0.4L18,35.1c0.4-0.4,0.8-0.6,1.2-1l15.6,26.5
					c0,0.2,0.2,0.2,0.2,0.4C36.2,62.6,38,62.8,39.4,62z"/>
			</g>
			<g class="st2">
				<path class="st3" d="M19.2,34.3c-0.4,0.2-0.8,0.6-1.2,1c-1.6,0.6-3.4-1.4-1.2-3.2c0.2-0.2,0.4-0.4,0.4-0.4l0,0
					C15.8,32.7,17.8,35.3,19.2,34.3z"/>
			</g>
			<g class="st4">
				<path d="M45.4,27.7l-6.6,33.1c-0.4,1.6-1.6,2.6-2.8,2.8c-0.8-0.2-1.4-0.6-2-1.2c2-1,2-3.6,2-3.6l2.2-28.5
					c-0.4,0.4-0.8,0.6-1.4,0.8c-0.6,0-1,0-1.2,0l0,0l0,0c2-1.6,0.4-3.6,0.2-5.6c0-1.4,1.6-1.8,2.4-1.8l0.4-0.2c0.6,0,1.2,0,1.8,0
					c1.8,0,3.6,0.2,5.2,0.6C47.6,24.5,48,27.5,45.4,27.7L45.4,27.7z"/>
			</g>
			<path d="M17.2,35.7c-0.6,0-1.2-0.2-1.6-0.8c-0.4-0.8-0.6-2,0.8-3.2c0.2-0.2,0.4-0.2,0.6,0s0.2,0.4,0,0.6c-0.8,0.6-1,1.4-0.6,2
				c0.2,0.4,0.8,0.6,1.2,0.4c7-5.6,18.3-8.6,29.1-7.6c0.8,0,1.4-0.4,1.4-1s-0.4-1.4-1.2-1.6c-0.2,0-0.4-0.4-0.4-0.6s0.4-0.4,0.6-0.4
				c1.2,0.2,2,1.4,1.8,2.6c0,0.8-0.8,1.8-2.4,2l0,0C36,26.9,24.8,29.9,18,35.5c0,0,0,0-0.2,0C17.8,35.7,17.6,35.7,17.2,35.7
				L17.2,35.7z"/>
			<path d="M36.6,64c-1.4,0-2.6-0.8-3.4-2L17.6,35.5c-0.2-0.2,0-0.4,0.2-0.6s0.4,0,0.6,0.2L34,61.6c0.8,1.4,2,1.6,3,1.4
				s2.2-0.8,2.4-2.4L46,27.5c0-0.2,0.2-0.4,0.6-0.4c0.2,0,0.4,0.2,0.4,0.6l-6.6,33.1c-0.4,1.6-1.6,2.8-3.2,3C37,64,36.8,64,36.6,64
				L36.6,64z"/>
			<g class="st4">
				<path d="M46.2,29.7c-2.4-0.4-4.8-0.4-7.2,0.2c-2.4,0.4-4.6,1.2-6.8,2.4s-4,2.6-5.8,4.2c-1.8,1.8-3.2,3.6-4.2,5.8H22
					c1-2.2,2.6-4.2,4.2-5.8c1.8-2,3.8-3.4,5.8-4.6c2.2-1.2,4.4-2,6.8-2.6s4.8-0.6,7.2-0.2L46.2,29.7L46.2,29.7z"/>
				<path d="M25,47.2c1-1.8,2.2-3.2,3.6-4.6c1.4-1.4,3-2.6,4.8-3.6c1.8-1,3.6-1.8,5.6-2.2s4-0.6,6-0.4v0.6c-2-0.2-4-0.2-5.8,0.2
					c-2,0.4-3.8,1.2-5.4,2.2c-1.8,1-3.2,2.2-4.8,3.4c-1.4,1.4-2.8,2.8-3.6,4.6L25,47.2L25,47.2z"/>
				<path d="M27.8,52.2c0.4-0.8,0.8-1.4,1.2-2c0.4-0.6,1-1.2,1.6-1.8c1.2-1,2.4-2,3.8-2.8s2.8-1.6,4.4-2c0.8-0.2,1.6-0.4,2.4-0.6
					s1.6-0.2,2.4,0v0.6c-0.8,0-1.6,0-2.2,0c-0.8,0.2-1.6,0.4-2.2,0.6c-1.4,0.4-3,1.2-4.2,2S32.4,48,31.2,49c-0.6,0.6-1.2,1-1.6,1.6
					C28.8,50.8,28.2,51.6,27.8,52.2C28,52.2,27.8,52.2,27.8,52.2z"/>
				<path d="M30.6,56.6c0.6-1,1.4-1.8,2.2-2.6s1.8-1.6,2.8-2.2c1-0.6,2-1.2,3.2-1.6c1.2-0.4,2.4-0.6,3.6-0.6V50
					c-1.2,0-2.2,0.2-3.4,0.4s-2.2,0.8-3,1.4c-1,0.6-2,1.4-2.8,2.2C32.2,55,31.4,55.8,30.6,56.6C30.8,56.8,30.6,56.6,30.6,56.6z"/>
				<path d="M41.2,55.8h-0.4h-0.2h-0.2h-0.2c-0.2,0-0.4,0-0.6,0.2h-0.2h-0.2c-0.8,0.2-1.6,0.6-2.2,1c-1.4,1-2.6,2-3.4,3.6l-0.2-0.2
					c0.8-1.6,2-2.8,3.4-3.8c0.8-0.4,1.4-1,2.2-1.2c0,0,0.2,0,0.2-0.2h0.2c0.2,0,0.4-0.2,0.6-0.2c0,0,0.2,0,0.4,0h0.4
					c0,0,0.2,0,0.4,0h0.4L41.2,55.8L41.2,55.8z"/>
				<path d="M20.8,39.9c2,0,4,0.4,6,1s3.8,1.4,5.8,2.2c1.8,1,3.6,2,5.2,3.2c0.8,0.6,1.6,1.2,2.4,2c0.4,0.4,0.8,0.8,1,1.2
					c0.4,0.4,0.6,0.8,0.8,1.4l-0.4,0.2c-0.2-0.4-0.4-0.8-0.8-1.2c-0.4-0.4-0.6-0.8-1-1.2c-0.8-0.8-1.4-1.4-2.2-2
					c-1.6-1.2-3.4-2.4-5.2-3.2s-3.6-1.8-5.6-2.4S22.8,40.1,20.8,39.9L20.8,39.9L20.8,39.9z"/>
				<path d="M26,48.6c1.4,0.2,3,0.6,4.4,1s2.8,1,4,1.8S37,53,38,54.2c1,1,2,2.2,2.8,3.6L40.4,58c-0.8-1.2-1.6-2.4-2.6-3.6
					c-1-1-2.2-2-3.4-2.8c-2.6-1.6-5.4-2.6-8.2-3H26L26,48.6z"/>
				<path d="M30,55.8c1,0.2,2,0.4,2.8,0.8c1,0.4,1.8,0.8,2.6,1.4s1.6,1.2,2.4,1.8c0.8,0.6,1.4,1.4,2,2.2l-0.4,0.2
					c-0.4-0.8-1-1.6-1.8-2.2c-0.6-0.6-1.4-1.2-2.2-1.8s-1.6-1-2.4-1.4c-1-0.4-2-0.6-3-0.8V55.8L30,55.8z"/>
				<path d="M21.2,32.7c2.2,0.4,4.2,0.8,6.4,1.6c2,0.6,4,1.6,6,2.6s3.8,2.2,5.4,3.6c1.6,1.4,3.2,3,4.4,4.8L43,45.7
					c-1.2-1.8-2.6-3.4-4.2-4.8c-1.6-1.4-3.4-2.6-5.4-3.6c-1.8-1-3.8-1.8-6-2.6s-4.2-1.2-6.2-1.6L21.2,32.7L21.2,32.7z"/>
				<path d="M33.6,29.5c1.2,0.4,2.2,1,3.2,1.6c1,0.6,2,1.4,3,2c1.8,1.6,3.6,3.4,5,5.4l-0.4,0.4c-1.4-2-2.8-3.8-4.8-5.4
					c-1-0.8-1.8-1.4-2.8-2.2S34.6,30.3,33.6,29.5L33.6,29.5L33.6,29.5z"/>
				<path d="M41,27.3c0.6,0.2,1,0.6,1.6,0.8c0.6,0.2,1,0.8,1.4,1.2c0.4,0.4,0.8,0.8,1.2,1.4l0.2,0.4l0.2,0.4l0.2,0.2v0.2
					c0,0.2,0.2,0.2,0.2,0.4l-0.6,0.2c0-0.2-0.2-0.2-0.2-0.4v-0.2v-0.2L45,31.3l-0.2-0.4c-0.2-0.4-0.6-1-1-1.4s-0.8-0.8-1.2-1.2
					c-0.4-0.4-1-0.6-1.4-1H41L41,27.3z"/>
			</g>
			<path class="st5" d="M41.2,9.8C38.6,8.2,35,8.6,35,8.6c-7.4,0.6-13.6,4.4-13.6,4.4c-1.2-3.2,0.2-6,3-7c3.8-2,4.6-4.6,2-5.2
				c0.2,0,0.2,0,0.4-0.2c5.6-1.4,12.4,1.8,9.6,7.8C38.4,8.6,40,9,41.2,9.8L41.2,9.8z"/>
			<path class="st5" d="M47,24.1c-3-0.6-6.2-0.6-9.4-0.2c-0.2,0-0.2,0-0.4,0c-2.2,0.6-1,2.2-0.6,4.2c0,0.6,0,1,0,1.6
				c-0.8,2.2-3.4,1.8-3.4-0.2c0-2.6-1.2-3.6-2.4-3.8c-1-0.2-2,0.2-2.8,1c-2,2.2-1,4.6,0.6,6.6c0.8,0.8,0.6,2-0.2,2.8
				c-1.2,0.8-3,0.4-3.2-2.2c0-1-0.2-1.6-0.4-2.2c-0.2-0.8-0.8-1.6-1.6-2.2c-2.2-1.4-4.4,0.8-6.6,2.4c-3.4-2.2-1.8-7.2,0.8-9.6
				c-1.8-3.2,0-7.6,3.8-9.4h0.2c0,0,6-3.8,13.6-4.4c0,0,3.6-0.4,6.2,1.2c0.2,0.2,0.4,0.2,0.6,0.4c1,0.8,1.8,2,1.8,3.4
				c0,0.6-0.2,1.4-0.4,2.2h0.2C46.4,16.1,49.8,20.1,47,24.1L47,24.1z"/>
			<path class="st6" d="M43.2,15.9L43.2,15.9H41c-7.8-0.2-15.8,1.4-23.5,6.6c-1.8-3.2,0-7.6,3.8-9.4h0.2c0,0,6-3.8,13.6-4.4
				c0,0,3.6-0.4,6.2,1.2c0.2,0,0.2,0.2,0.4,0.2l0.2,0.2c1,1.2,1.6,2.2,1.8,3.4C43.6,14.3,43.4,15.1,43.2,15.9L43.2,15.9z"/>
			<g class="st2">
				<path class="st3" d="M28,36.3c-1.2,0.4-2.6-0.2-2.8-2.4c0-1-0.2-1.6-0.4-2.2c-0.2-0.8-0.8-1.6-1.6-2.2c-0.2-0.2-0.6-0.2-0.8-0.4
					c0.8-0.2,1.4-0.2,2.2,0.4c0.8,0.4,1.4,1.2,1.6,2.2c0.2,0.6,0.2,1.2,0.4,2.2C26.6,35.3,27.2,36.1,28,36.3z"/>
			</g>
			<g class="st2">
				<path class="st3" d="M32.6,16.7c-4.2,1.2-8.8,3-12.8,5.4c-1.4,0.8-2.6,2-3.2,3.6c-0.8,1.6-1,3.8,0.8,6c-0.2,0.2-0.4,0.4-0.6,0.4
					c-3.4-2.2-1.8-7.2,0.8-9.6c-1.8-3.4,0-7.6,3.8-9.4c-1.2-3.2,0.2-6,3-7c3.8-2,4.6-4.6,2-5.2c0.2,0,0.2,0,0.4-0.2
					c1-0.2,2.2-0.4,3.2-0.2c-0.6,0-1.2,0.2-2,0.2c-0.2,0-0.2,0-0.4,0.2c2.6,0.6,1.8,3.4-2,5.2c-2.4,1-3.8,3.4-3.2,6.2
					c0,0.2,0,0.4,0,0.4c3.2-1.6,6.2-3,8.4-2.8c-2.4,0.8-5.6,2.2-8.8,3.8c-1,0.4-2,1.4-2.6,2.4c-1,1.4-1.8,3.2-0.8,5.8
					C23,18.9,27.8,17.1,32.6,16.7z"/>
			</g>
			<g class="st2">
				<path class="st3" d="M35.4,31.1c-1,0.4-2.2-0.2-2.2-1.6c0-2.4-1-3.4-2.2-3.8c0.4,0,0.6-0.2,1,0c1.4,0.2,2.4,1.2,2.4,3.8
					C34.4,30.3,34.8,30.9,35.4,31.1L35.4,31.1z"/>
			</g>
			<path d="M27.2,36.9c-0.2,0-0.6,0-0.8-0.2c-0.6-0.2-1.4-1-1.6-2.8c0-0.8-0.2-1.4-0.4-2c-0.2-0.8-0.8-1.4-1.4-1.8
				c-1.6-1-3.2,0.2-5,1.6c-0.4,0.2-0.6,0.6-1,0.8c-0.2,0-0.4,0.2-0.6,0c-1.2-0.8-2-2-2.2-3.6c-0.2-2.2,1-4.8,2.6-6.4
				c-0.8-1.4-0.8-3.2-0.2-4.8c0.6-2,2.2-3.8,4.2-4.8c-0.4-1.6-0.4-3,0.2-4.2c0.6-1.4,1.6-2.4,3.2-3c2.4-1.2,3.4-2.6,3.2-3.4
				c0-0.6-0.6-0.8-1.2-1c-0.2,0-0.4-0.2-0.4-0.4s0.2-0.4,0.4-0.4c3.8-1,8-0.2,10,2.2C37.6,4,38,5.8,37.2,8c2.8,0.4,5,1.6,6,3.4
				c0.8,1.2,0.8,2.6,0.4,4.2c1.8,0.2,3.4,1.4,4.2,3.2c1,1.8,0.8,3.8-0.4,5.8c0,0.2-0.2,0.2-0.4,0.2c-2.8-0.6-6-0.6-9.2-0.2
				c-0.6,0.2-1,0.4-1.2,0.6c-0.2,0.4,0,1,0.2,1.8c0.2,0.4,0.2,0.8,0.4,1.2c0.2,0.6,0,1.2,0,1.8c-0.4,1.4-1.6,2-2.6,1.8
				c-1-0.2-1.8-1-1.8-2.2c0-1.4-0.4-3.2-2-3.4c-0.8-0.2-1.8,0.2-2.4,1c-2,2.2-0.4,4.8,0.6,6c0.4,0.4,0.6,1.2,0.6,1.8
				s-0.4,1.2-0.8,1.6C28.2,36.7,27.8,36.9,27.2,36.9L27.2,36.9z M21.8,28.7c0.6,0,1.2,0.2,1.8,0.4c0.8,0.6,1.4,1.4,1.8,2.4
				c0.2,0.6,0.2,1.4,0.4,2.2c0.2,1,0.4,1.8,1.2,2c0.4,0.2,1,0.2,1.4-0.2c0.2-0.2,0.4-0.6,0.6-1c0-0.4,0-0.8-0.4-1.2
				c-2.2-2.6-2.4-5.2-0.6-7.2c0.8-0.8,2-1.4,3.2-1.2c1,0.2,2.8,0.8,2.8,4.2c0,0.8,0.6,1.2,1,1.2c0.6,0,1.2-0.2,1.6-1.2
				c0.2-0.4,0.2-0.8,0-1.4c0-0.4-0.2-0.8-0.4-1.2c-0.2-1-0.6-1.8-0.2-2.4c0.2-0.4,0.8-0.8,1.8-1l0,0c3.4-0.4,6.4-0.4,9.2,0.2
				c1-1.4,1-3,0.2-4.6s-2.6-2.8-4.2-2.8c-0.2,0-0.2,0-0.4-0.2c0-0.2,0-0.4,0-0.4c0.6-1.4,0.6-2.6,0-3.8c-1-1.6-3.2-2.8-6-3
				c-0.2,0-0.2-0.2-0.4-0.2s0-0.2,0-0.4c0.8-2,0.8-3.6-0.4-5C34.2,1,31,0,28,0.6c0.4,0.4,0.6,0.8,0.6,1.2c0.2,1.4-1.2,3-3.8,4.4l0,0
				C22,7.4,21,10,22.2,12.9c0,0.2,0,0.4-0.2,0.6c-2,1-3.4,2.6-4,4.4c-1,1.6-0.8,3.2,0,4.4c0.2,0.2,0,0.4-0.2,0.6
				c-1.6,1.4-2.8,3.8-2.6,5.8c0,0.8,0.4,2,1.4,2.8c0.2-0.2,0.4-0.4,0.8-0.6C18.8,29.9,20.2,28.9,21.8,28.7L21.8,28.7z"/>
			<g class="st4">
				<path class="st3" d="M24.6,11.3c-0.2-3.4,3.8-5,4.2-1.6c-2,1.8-2.8,4.2-1.2,7.6L24,18.7C22.4,16.7,22,13.5,24.6,11.3L24.6,11.3z
					"/>
			</g>
			<g class="st4">
				<path class="st3" d="M21.6,20.1l3.6-1.6c0,0-1,2-0.4,4c0.2,1,0,2-0.6,2.8c-0.6,0.6-1.2,0.6-1.6,0.4c-0.6-0.2-1-0.8-1.2-1.6
					C21.2,22.9,21.2,21.3,21.6,20.1L21.6,20.1z"/>
			</g>
			<path d="M26.6,28.5c0.2-0.6,0.4-1.2,0.6-1.8c0.2-0.6,0.6-1.2,1-1.6s1-0.8,1.6-1.2s1.2-0.4,1.8-0.4c0.2,0,0.2,0,0.2,0.2
				s0,0.2-0.2,0.2l0,0c-0.6,0.2-1.2,0.2-1.6,0.6s-1,0.6-1.2,1s-0.6,1-0.8,1.4c-0.2,0.6-0.4,1-0.4,1.6l0,0c0,0.2-0.2,0.4-0.6,0.4
				C26.6,28.9,26.4,28.7,26.6,28.5L26.6,28.5z"/>
			<path d="M17.4,22.3c1.8-1.2,3.6-2.2,5.4-3.2c1.8-0.8,3.8-1.6,5.8-2.2c0.4-0.2,1-0.2,1.6-0.4c0.2,0,0.4-0.2,0.8-0.2l0.8-0.2h0.4
				c0.2,0,0.2,0,0.4,0l0.6-0.2c0.2,0,0.2,0,0.4,0H34c0.2,0,0.6,0,0.8,0c2-0.2,4.2-0.2,6.2,0l0.2,0.2c0,0,0,0.2-0.2,0.2
				c-2,0-4,0.2-6.2,0.4c-0.4,0-1,0.2-1.6,0.2l-0.8,0.2c-0.2,0-0.2,0-0.4,0h-0.4c-0.4,0.2-1,0.2-1.6,0.4c-0.4,0.2-1,0.2-1.4,0.4
				c-2,0.6-3.8,1.2-5.8,2.2c-1.8,0.8-3.6,1.8-5.2,3l0,0c-0.2,0.2-0.4,0-0.6-0.2C17.2,22.7,17.2,22.3,17.4,22.3L17.4,22.3z"/>
			<path d="M21.2,12.7c0.6-0.4,1-0.6,1.6-0.8c0.2-0.2,0.6-0.2,0.8-0.4c0.2-0.2,0.6-0.2,0.8-0.4l0.8-0.4l0.8-0.4
				c0.8,0,1.4-0.4,1.8-0.4c0.6-0.2,1.2-0.4,1.8-0.4l0.8-0.2c0.2,0,0.2,0,0.4-0.2h0.4c1.2-0.2,2.4-0.4,3.6-0.4c0,0,0.2,0,0.2,0.2
				c0,0,0,0.2-0.2,0.2l0,0c-0.2,0-0.6,0.2-0.8,0.2h-0.4c-0.2,0-0.2,0-0.4,0l-0.8,0.2c-0.2,0-0.6,0.2-0.8,0.2l-0.4,0.2
				c-0.2,0-0.2,0-0.4,0.2L30,10.2c-0.6,0.2-1.2,0.4-1.6,0.6c-0.2,0.2-0.6,0.2-0.8,0.2c-0.2,0.2-0.6,0.2-0.8,0.4L26,11.9l-1.2,0
				c-0.2,0-0.6,0.2-0.8,0.2c-0.2,0.2-0.6,0.2-0.8,0.4c-0.6,0.2-1,0.6-1.6,0.8l0,0c-0.2,0.2-0.4,0-0.6-0.2C21,13.1,21,12.9,21.2,12.7
				L21.2,12.7z"/>
			<g class="st4">
				<path d="M45.8,23.9c-1.4-0.2-3-0.4-4.4-0.2c-1.2,0-2.6,0.2-3.8,0.4c-0.2,0-0.2,0-0.4,0l0.2-0.2c2.4-3,0-7.6-3.4-7.6l-0.4,0.2
					l-2.2,0.4c0.2-0.2,0.2-0.2,0.4-0.2c2.6-2.4,1-6.2-1.4-6.8L32,9.2c2.8-4.8-1-8.8-5.2-8.6c0,0,0,0,0.2-0.2c0.6-0.2,1.2-0.2,2-0.2
					l0,0c4.6,0.2,8.6,3.2,6.4,8c4.8,0.4,8,3.6,6.2,7.6C44.8,15.9,48.4,19.9,45.8,23.9z"/>
			</g>
			<g class="st4">
				<path d="M31.2,25.9c0,0-2.8,0.8-2,3.4l-0.6,0.2c0,0,0,1.4,1.4,2.4c1.2,1,1.8,3.8-1.6,4.4c1-0.8,1.2-2.2,0-3.4
					C25.8,30.1,27,25.1,31.2,25.9L31.2,25.9z"/>
			</g>
		</g>
	</g>
	<path d="M22,13.5l4-1.6C26,11.9,22.8,10.8,22,13.5z"/>
</g>
</svg>
